/* XPM */
static char *haskell_c2[] = {
/* columns rows(21) colors chars-per-pixel */
"30 30 4 1 ",
"  c None",
". c #453A62",
"X c #5E5086",
"o c #8F4E8B",
/* pixels */
"                              ",
"                              ",
"                              ",
"...... XXXXXX                 ",
" .....  XXXXX                 ",
"  .....  XXXXX                ",
"  ...... XXXXXX               ",
"   .....  XXXXX               ",
"    .....  XXXXX              ",
"    ...... XXXXXX  ooooooooooo",
"     .....  XXXXX  ooooooooooo",
"      .....  XXXXX  oooooooooo",
"      ...... XXXXXX  ooooooooo",
"       .....  XXXXX           ",
"      ...... XXXXXXX  oooooooo",
"      .....  XXXXXXXX  ooooooo",
"     .....  XXXXXXXXX  ooooooo",
"    ...... XXXXXXXXXXX  oooooo",
"    .....  XXXXX  XXXXX       ",
"   .....  XXXXX   XXXXX       ",
"  ...... XXXXXX    XXXXX      ",
"  .....  XXXXX      XXXXX     ",
" .....  XXXXX       XXXXX     ",
"...... XXXXXX        XXXXX    ",
"                              ",
"                              ",
"                              ",
"                              ",
"                              ",
"                              "
};
